PathFileType	4	(X/Y/Z)	Walk4.trc
DataRate	CameraRate	NumFrames	NumMarkers	Units	OrigDataRate	OrigDataStartFrame	OrigNumFrames
200.000000	200.000000	4	58	mm	200.000000	438	550
Frame#	Times		RBHD		C7		RASI		RACR1		RUA1		RElbow		RFA1		RWRU		RCAR		LFA1		RTH2		RTH3		RBack		LTH2		LElbowM		RLFC		RTB1		RTB3		LTH3		RTH1		RTH4		RMT1		RMT5		LElbow		RTB2		LTH4		LACR1		RTB4		LWRR		LWRU		RMMAL		CLAV		LASI		LPSI		LTB1		LBHD		RPSI		LLFC		T10		RWRR		LFHD		LTB3		LCAR		LTH1		LTB4		RFHD		LMT1		LCAL		RToe		LMMAL		RElbowM		LMT5		RLMAL		LLMAL		LTB2		LToe		LUA1		RCAL
			X1	Y1	Z1	X2	Y2	Z2	X3	Y3	Z3	X4	Y4	Z4	X5	Y5	Z5	X6	Y6	Z6	X7	Y7	Z7	X8	Y8	Z8	X9	Y9	Z9	X10	Y10	Z10	X11	Y11	Z11	X12	Y12	Z12	X13	Y13	Z13	X14	Y14	Z14	X15	Y15	Z15	X16	Y16	Z16	X17	Y17	Z17	X18	Y18	Z18	X19	Y19	Z19	X20	Y20	Z20	X21	Y21	Z21	X22	Y22	Z22	X23	Y23	Z23	X24	Y24	Z24	X25	Y25	Z25	X26	Y26	Z26	X27	Y27	Z27	X28	Y28	Z28	X29	Y29	Z29	X30	Y30	Z30	X31	Y31	Z31	X32	Y32	Z32	X33	Y33	Z33	X34	Y34	Z34	X35	Y35	Z35	X36	Y36	Z36	X37	Y37	Z37	X38	Y38	Z38	X39	Y39	Z39	X40	Y40	Z40	X41	Y41	Z41	X42	Y42	Z42	X43	Y43	Z43	X44	Y44	Z44	X45	Y45	Z45	X46	Y46	Z46	X47	Y47	Z47	X48	Y48	Z48	X49	Y49	Z49	X50	Y50	Z50	X51	Y51	Z51	X52	Y52	Z52	X53	Y53	Z53	X54	Y54	Z54	X55	Y55	Z55	X56	Y56	Z56	X57	Y57	Z57	X58	Y58	Z58

438	2.19	696.72	1571.6	387.89	656.69	1434.7	307.49	741.5	933.59	439.85	706.34	1383.1	459.41	622.82	1202.4	531.84	551.22	1088.2	549.11	561.01	942.45	580.82	526.77	814.54	573.94	558.63	754.38	588.24	777.8	1012.9	-17.313	824.8	677.79	458.67	803.6	562.1	476.97	573.98	1344.8	389.25	725.69	633.05	157.17	618.83	1101	75.619	843.71	472.82	460.65	909.34	398.24	384.74	957.38	214.09	394.3	642.56	556.31	127.57	724.84	733.5	495.96	763.99	646.4	487.14	1089.3	92.26	361.28	1064.5	80.141	442.06	646.35	1110.9	-2.1511	917.04	305.07	462.02	662.94	642.58	112.13	706.16	1426.9	135.84	934.46	308.85	391.74	861.96	939.8	32.269	804.91	897.13	-9.6162	955.61	118.43	351.21	790.11	1349.7	300.56	742.54	939.27	136.29	568.46	954.53	231.65	607.58	347.52	209.57	683.65	1570.6	248.74	562.74	953.85	336.72	599.04	443.19	144.83	558.22	1125.6	283.31	600.72	804.27	557.49	868.84	1590.2	257.13	532.01	178.81	227.54	889.17	893.5	-14.654	685.45	737.43	103.38	567.68	263.68	218.77	878.11	1596.4	337.75	587.28	34.023	279.4	375.75	44.118	247.54	1126.5	118.54	389.29	461.01	94.881	290.65	538.91	1066.1	455.08	558.64	30.474	188.49	930.85	97.249	436.31	432.21	79.909	202.3	545.47	267.22	150.57	636.12	25.124	266.13	673.84	1239.4	27.357	902.99	34.041	394.12
439	2.195	702.75	1570.2	388.85	662.87	1433.3	308.01	748.51	932.44	440.09	712.57	1381.9	459.92	628.33	1201.4	532.04	556.15	1087.4	549.17	565.23	941.73	580.85	530.36	813.83	573.98	561.56	753.46	588.45	786	1012.7	-17.035	830.47	676.27	458.6	809.66	560.69	476.59	580.25	1343.5	389.52	730.64	631.89	157.3	626.45	1100	75.73	850.79	472.19	460.25	916.96	398.49	384.47	968.12	215.11	394.19	646.97	555.82	127.87	730.72	731.8	496.41	770.01	645.02	487.1	1102.3	94.886	360.66	1078	82.661	441.51	653.85	1110.3	-2.0654	926.81	305.75	461.84	667.84	641.88	112.54	712.87	1425.8	136.61	943.67	309.54	391.43	870.43	940.21	32.843	813.69	897.16	-9.2366	967.99	119.41	351.19	796.55	1348.6	301.46	748.4	938.06	136.54	574.76	953.44	232.56	610.71	347.04	209.65	689.86	1569.7	249.91	569.43	952.74	337.31	602.33	443.15	144.99	564.54	1124.5	283.65	604.29	803.23	558	875.01	1589.2	258.02	533.29	178.74	227.72	898.06	894.28	-14.234	690.82	736.63	103.74	569.87	263.45	219.04	884.19	1595.4	338.75	587.38	34.06	279.35	375.96	45.241	247.5	1139.5	121.56	388.17	461.62	95.378	290.68	544.25	1065.5	454.83	558.65	30.401	188.48	944.25	98.305	436.54	432.55	80.79	202.23	547.53	267.2	150.79	636.09	24.931	266.34	681.12	1238.6	27.784	917.05	34.094	394.21
440	2.2	708.82	1568.8	390	669.18	1432.2	308.57	755.26	931.4	440.36	718.43	1380.7	460.6	633.67	1200.1	532.51	561.38	1086.6	549.14	569.72	940.87	581.04	533.88	813.32	573.85	564.91	752.72	588.53	794.04	1012.7	-16.622	836.5	674.96	458.37	815.76	559.23	476.59	586.55	1342.2	390.26	735.38	630.81	157.53	633.72	1099.2	75.939	857.87	471.79	459.95	924.95	398.63	384.07	978.46	215.96	393.93	651.11	555.19	128.13	736.65	730.74	496.77	776.43	644.03	488.89	1114.5	97.383	359.87	1090.7	84.666	440.7	661.35	1109.4	-2.01	936.19	306.14	461.78	672.69	641.31	112.86	719.75	1424.9	137.28	952.83	310.09	391.12	878.8	940.53	33.312	822.24	897.17	-8.8127	979.92	120.43	350.86	802.96	1347.5	302.12	754.38	936.94	136.88	580.97	952.12	233.49	613.12	346.39	209.79	695.98	1568.3	250.8	576.05	951.64	338.29	606.23	442.83	145.32	571	1123.3	284.33	608.05	802.43	557.82	881.04	1588.4	259.25	534.57	178.95	227.72	906.8	894.93	-13.809	696.23	735.92	104.09	571.96	263.26	219.17	890.36	1594.4	339.75	587.43	34.032	279.4	376.19	46.62	247.57	1151.7	124.37	387.17	462.14	96.074	290.59	549.58	1064.8	454.7	558.65	30.409	188.48	956.59	98.932	436.67	433.09	81.714	202.13	549.41	267.23	150.96	636.12	24.807	266.47	688.51	1237.6	28.235	930.11	34.243	394.03
441	2.205	714.98	1567.6	391.07	675.62	1431.2	309.22	761.67	930.38	440.86	724.47	1379.5	461.18	639.37	1199.2	533	566.74	1085.6	549.22	574.03	940.05	581.18	537.88	812.43	574.1	568.63	751.87	588.37	802.01	1012.3	-16.34	842.44	673.83	458.29	822.36	558.09	476.5	592.87	1341	390.4	740.36	629.83	157.65	641.05	1098.2	76.238	865.05	471.34	459.77	932.47	398.72	384.16	988.45	216.66	393.63	655.71	554.77	128.45	743.26	729.43	497.11	783.09	643.6	490.54	1126	99.737	359.18	1102.2	86.501	439.88	668.73	1108.5	-1.9083	945.47	306.34	461.63	677.39	640.74	113.38	726.5	1424.1	138.02	961.66	310.6	390.9	887.09	940.8	33.679	830.86	897.13	-8.4668	991.18	121.23	350.38	809.42	1346.4	302.87	760.92	935.85	136.96	587.56	950.83	234.21	616.2	345.88	210.05	701.88	1567.2	251.6	582.44	950.19	339.01	610.69	442.47	145.45	577.59	1122.3	284.72	612.14	801.28	557.54	887.1	1587.4	260.23	536.13	179.21	227.74	915.57	895.33	-13.298	701.72	735.15	104.41	574.26	263.23	219.28	896.43	1593.2	340.78	587.53	34.172	279.35	376.29	48.423	247.47	1163.1	126.87	386.33	462.81	97.048	290.45	555.02	1063.8	454.85	558.65	30.435	188.53	968.05	99.822	436.16	433.88	82.911	202.08	551.82	267.41	151.18	636.12	24.736	266.61	695.74	1236.9	28.827	942.31	34.538	393.38
